<svg id="Layer_1" data-name="Layer 1" xmlns="http://www.w3.org/2000/svg" xmlns:xlink="http://www.w3.org/1999/xlink" viewBox="0 0 253.33 99.059"><defs><style>.cls-1{fill:#232323;}.cls-2{fill:url(#linear-gradient);}.cls-3{fill:url(#linear-gradient-2);}.cls-4{fill:#f9b233;stroke:#fff;stroke-miterlimit:10;stroke-width:0.118px;}</style><linearGradient id="linear-gradient" x1="131.174" y1="247.286" x2="198.578" y2="247.286" gradientUnits="userSpaceOnUse"><stop offset="0" stop-color="#009fe3"/><stop offset="1" stop-color="#69b42d"/></linearGradient><linearGradient id="linear-gradient-2" x1="143.549" y1="262.775" x2="211.831" y2="262.775" xlink:href="#linear-gradient"/></defs><path class="cls-1" d="M240.093,217a17.145,17.145,0,0,1,17.106,17.1v41.208H246.054V234.105a5.961,5.961,0,1,0-11.921,0v41.208H222.988V234.105A17.145,17.145,0,0,1,240.093,217Z" transform="translate(-131.174 -195.941)"/><path class="cls-1" d="M281.3,217a17.181,17.181,0,0,1,17.192,17.191v41.122H287.263V234.191a5.961,5.961,0,0,0-11.922,0v6.048a.277.277,0,0,0,.26.259h8.9v11.23h-8.9a11.484,11.484,0,0,1-11.49-11.489v-6.048A17.181,17.181,0,0,1,281.3,217Zm-17.191,31.705a14.355,14.355,0,0,0,11.23,5.788v20.82h-11.23Z" transform="translate(-131.174 -195.941)"/><path class="cls-1" d="M345.578,217a17.144,17.144,0,0,1,17.1,17.1v41.208H351.538V234.105a5.961,5.961,0,1,0-11.922,0H328.472a5.961,5.961,0,1,0-11.922,0v41.208H305.406V234.105A17.145,17.145,0,0,1,322.511,217a17.438,17.438,0,0,1,11.576,4.492A17.055,17.055,0,0,1,345.578,217Zm-17.106,58.313V236.87h11.144v38.443Z" transform="translate(-131.174 -195.941)"/><path class="cls-1" d="M369.6,275.313V217h11.231v58.313Z" transform="translate(-131.174 -195.941)"/><path class="cls-1" d="M224.051,287.32v4.636h-1.294V281.773h6.827v1.152h-5.533v3.243h4.864v1.152Z" transform="translate(-131.174 -195.941)"/><path class="cls-1" d="M233.879,284.49a2.956,2.956,0,0,1,2.517,1.151,4.319,4.319,0,0,1,.768,2.7,3.932,3.932,0,0,1-.995,2.9,3.485,3.485,0,0,1-4.865-.256,4.179,4.179,0,0,1-.768-2.645,4.091,4.091,0,0,1,1.01-2.973A3.123,3.123,0,0,1,233.879,284.49Zm0,1.066a1.859,1.859,0,0,0-1.565.747,3.292,3.292,0,0,0-.569,2.041,2.987,2.987,0,0,0,.64,2.062,1.877,1.877,0,0,0,1.479.626,1.819,1.819,0,0,0,1.529-.711,3.172,3.172,0,0,0,.548-1.977,3.219,3.219,0,0,0-.626-2.134A1.769,1.769,0,0,0,233.879,285.556Z" transform="translate(-131.174 -195.941)"/><path class="cls-1" d="M238.771,284.646h1.081v1.337a2.126,2.126,0,0,1,2.02-1.508,2.474,2.474,0,0,1,.412.043v1.194a2.87,2.87,0,0,0-1.564.327,2.469,2.469,0,0,0-.782,2.12v3.8h-1.167Z" transform="translate(-131.174 -195.941)"/><path class="cls-1" d="M251.245,286.651h-1.281q-.055-1.1-1.464-1.1a2.061,2.061,0,0,0-1.145.277.855.855,0,0,0-.42.747q0,.711,1.351,1.024l1.124.256a3.374,3.374,0,0,1,1.579.725,1.7,1.7,0,0,1,.483,1.281,1.94,1.94,0,0,1-.81,1.642,3.587,3.587,0,0,1-2.191.605,3.3,3.3,0,0,1-2.29-.711,2.112,2.112,0,0,1-.7-1.551h1.323a1.668,1.668,0,0,0,.313.725,1.819,1.819,0,0,0,1.437.456,2.307,2.307,0,0,0,1.244-.292.882.882,0,0,0,.462-.775q0-.724-1.123-.995l-1.1-.257A4.48,4.48,0,0,1,246.3,288a1.656,1.656,0,0,1-.569-1.352,1.887,1.887,0,0,1,.761-1.579,3.277,3.277,0,0,1,2.041-.582,2.989,2.989,0,0,1,2.077.668A1.929,1.929,0,0,1,251.245,286.651Z" transform="translate(-131.174 -195.941)"/><path class="cls-1" d="M255.9,284.49a2.959,2.959,0,0,1,2.518,1.151,4.319,4.319,0,0,1,.768,2.7,3.932,3.932,0,0,1-1,2.9,3.484,3.484,0,0,1-4.864-.256,4.179,4.179,0,0,1-.768-2.645,4.087,4.087,0,0,1,1.01-2.973A3.122,3.122,0,0,1,255.9,284.49Zm0,1.066a1.86,1.86,0,0,0-1.565.747,3.292,3.292,0,0,0-.568,2.041,2.982,2.982,0,0,0,.64,2.062,1.875,1.875,0,0,0,1.479.626,1.82,1.82,0,0,0,1.529-.711,3.172,3.172,0,0,0,.548-1.977,3.219,3.219,0,0,0-.626-2.134A1.772,1.772,0,0,0,255.9,285.556Z" transform="translate(-131.174 -195.941)"/><path class="cls-1" d="M263.419,284.646v.938H262.21v6.372h-1.152v-6.372h-.981v-.938h.981v-1.252a1.637,1.637,0,0,1,.448-1.223,1.718,1.718,0,0,1,1.259-.441,3.243,3.243,0,0,1,.654.071v.967h-.128c-.1-.009-.194-.014-.27-.014q-.811,0-.811.74v1.152Z" transform="translate(-131.174 -195.941)"/><path class="cls-1" d="M267.544,284.646v.938H266.05v4.865a.589.589,0,0,0,.178.434.625.625,0,0,0,.462.177,4.035,4.035,0,0,0,.825-.128l.128,1.024a8.275,8.275,0,0,1-1.337.157q-1.408,0-1.408-1.152v-5.377h-1v-.938h1v-1.494l1.152-.526v2.02Z" transform="translate(-131.174 -195.941)"/><path class="cls-1" d="M275.665,291.956h-1.323l-1.494-5.746-1.408,5.746h-1.308l-2.119-7.31h1.28l1.507,5.689,1.394-5.689h1.422l1.437,5.689,1.451-5.689h1.308Z" transform="translate(-131.174 -195.941)"/><path class="cls-1" d="M285.478,290.975v.939a2.474,2.474,0,0,1-.753.17,1.074,1.074,0,0,1-1.238-1.038A2.879,2.879,0,0,1,281,292.113a2.483,2.483,0,0,1-1.835-.654,1.985,1.985,0,0,1-.568-1.465,1.869,1.869,0,0,1,.725-1.579,5.1,5.1,0,0,1,1.721-.612l2.389-.54.015-.612q0-1.1-1.65-1.1-1.579,0-1.693,1.28h-1.18a2.367,2.367,0,0,1,.483-1.479,3.086,3.086,0,0,1,2.447-.867q2.744,0,2.744,1.991v4.082q0,.54.47.54a1.381,1.381,0,0,0,.3-.085A.9.9,0,0,0,285.478,290.975Zm-2.033-2.759-1.878.483a4.509,4.509,0,0,0-1.386.526.875.875,0,0,0-.377.754q0,1.124,1.45,1.124a2.445,2.445,0,0,0,1.736-.668,1.242,1.242,0,0,0,.455-.939Z" transform="translate(-131.174 -195.941)"/><path class="cls-1" d="M286.744,284.646h1.081v1.337a2.126,2.126,0,0,1,2.02-1.508,2.474,2.474,0,0,1,.412.043v1.194a2.867,2.867,0,0,0-1.564.327,2.469,2.469,0,0,0-.783,2.12v3.8h-1.166Z" transform="translate(-131.174 -195.941)"/><path class="cls-1" d="M297.582,288.642h-5.391a2.653,2.653,0,0,0,.4,1.494,2,2,0,0,0,1.763.9,1.888,1.888,0,0,0,1.92-1.351h1.166a2.879,2.879,0,0,1-1.052,1.792,3.291,3.291,0,0,1-2.077.64,3.029,3.029,0,0,1-2.546-1.138,4.142,4.142,0,0,1-.782-2.631,4.047,4.047,0,0,1,1.024-2.944,3.111,3.111,0,0,1,2.319-.91,3.349,3.349,0,0,1,1.827.5,2.781,2.781,0,0,1,1.131,1.366,6.353,6.353,0,0,1,.3,2.247Zm-1.252-.953a2.145,2.145,0,0,0-.562-1.543,1.905,1.905,0,0,0-1.443-.59,1.945,1.945,0,0,0-1.458.576,2.391,2.391,0,0,0-.633,1.557Z" transform="translate(-131.174 -195.941)"/><path class="cls-1" d="M307.737,281.773v10.183H306.57v-1.009a2.333,2.333,0,0,1-2.161,1.18,2.9,2.9,0,0,1-2.475-1.166,4.452,4.452,0,0,1-.754-2.7,4.018,4.018,0,0,1,.981-2.873,2.848,2.848,0,0,1,2.177-.895,2.522,2.522,0,0,1,2.232,1.109v-3.826Zm-3.2,3.8a1.877,1.877,0,0,0-1.557.761,3.2,3.2,0,0,0-.59,2.013,2.88,2.88,0,0,0,.683,2.034,1.894,1.894,0,0,0,1.479.654,1.749,1.749,0,0,0,1.472-.726,3.826,3.826,0,0,0-.078-4.067A1.752,1.752,0,0,0,304.536,285.57Z" transform="translate(-131.174 -195.941)"/><path class="cls-1" d="M315.73,288.642h-5.391a2.653,2.653,0,0,0,.4,1.494,2.006,2.006,0,0,0,1.764.9,1.888,1.888,0,0,0,1.92-1.351h1.166a2.879,2.879,0,0,1-1.052,1.792,3.293,3.293,0,0,1-2.077.64,3.028,3.028,0,0,1-2.546-1.138,4.136,4.136,0,0,1-.782-2.631,4.047,4.047,0,0,1,1.024-2.944,3.11,3.11,0,0,1,2.319-.91,3.352,3.352,0,0,1,1.827.5,2.781,2.781,0,0,1,1.131,1.366,6.353,6.353,0,0,1,.3,2.247Zm-1.252-.953a2.145,2.145,0,0,0-.562-1.543,1.905,1.905,0,0,0-1.443-.59,1.945,1.945,0,0,0-1.458.576,2.391,2.391,0,0,0-.633,1.557Z" transform="translate(-131.174 -195.941)"/><path class="cls-1" d="M320.324,291.956h-1.267l-2.574-7.31h1.323l1.934,5.917,2.077-5.917h1.308Z" transform="translate(-131.174 -195.941)"/><path class="cls-1" d="M330.478,288.642h-5.39a2.653,2.653,0,0,0,.4,1.494,2,2,0,0,0,1.763.9,1.888,1.888,0,0,0,1.92-1.351h1.166a2.884,2.884,0,0,1-1.052,1.792,3.293,3.293,0,0,1-2.077.64,3.028,3.028,0,0,1-2.546-1.138,4.142,4.142,0,0,1-.782-2.631A4.042,4.042,0,0,1,324.9,285.4a3.109,3.109,0,0,1,2.318-.91,3.35,3.35,0,0,1,1.828.5,2.774,2.774,0,0,1,1.13,1.366,6.33,6.33,0,0,1,.3,2.247Zm-1.251-.953a2.149,2.149,0,0,0-.562-1.543,1.906,1.906,0,0,0-1.444-.59,1.948,1.948,0,0,0-1.458.576,2.4,2.4,0,0,0-.633,1.557Z" transform="translate(-131.174 -195.941)"/><path class="cls-1" d="M333.209,281.773v10.183h-1.167V281.773Z" transform="translate(-131.174 -195.941)"/><path class="cls-1" d="M338.03,284.49a2.959,2.959,0,0,1,2.518,1.151,4.319,4.319,0,0,1,.768,2.7,3.936,3.936,0,0,1-.995,2.9,3.485,3.485,0,0,1-4.865-.256,4.179,4.179,0,0,1-.768-2.645,4.087,4.087,0,0,1,1.01-2.973A3.122,3.122,0,0,1,338.03,284.49Zm0,1.066a1.857,1.857,0,0,0-1.564.747,3.292,3.292,0,0,0-.569,2.041,2.987,2.987,0,0,0,.64,2.062,1.877,1.877,0,0,0,1.479.626,1.823,1.823,0,0,0,1.53-.711,3.178,3.178,0,0,0,.547-1.977,3.219,3.219,0,0,0-.626-2.134A1.77,1.77,0,0,0,338.03,285.556Z" transform="translate(-131.174 -195.941)"/><path class="cls-1" d="M342.71,295V284.646h1.08v1.123a2.6,2.6,0,0,1,2.333-1.279,2.746,2.746,0,0,1,2.389,1.194,4.609,4.609,0,0,1,.74,2.731,3.9,3.9,0,0,1-.968,2.816,3.077,3.077,0,0,1-4.409-.1V295Zm3.213-9.43a1.761,1.761,0,0,0-1.485.754,3.3,3.3,0,0,0-.563,2.02,3.032,3.032,0,0,0,.64,2.048,1.773,1.773,0,0,0,1.408.626,1.86,1.86,0,0,0,1.543-.733,3.045,3.045,0,0,0,.577-1.941,3.144,3.144,0,0,0-.654-2.105A1.864,1.864,0,0,0,345.923,285.57Z" transform="translate(-131.174 -195.941)"/><path class="cls-1" d="M350.7,284.646h1.082V285.7a2.627,2.627,0,0,1,2.247-1.208,2.089,2.089,0,0,1,1.963,1.08,3.271,3.271,0,0,1,1.016-.846,2.817,2.817,0,0,1,1.216-.234q2.135,0,2.134,2v5.461h-1.166V286.95q0-1.45-1.366-1.451a1.564,1.564,0,0,0-1.209.555,1.914,1.914,0,0,0-.5,1.323v4.579h-1.166V286.95q0-1.45-1.351-1.451a1.609,1.609,0,0,0-1.23.548,1.889,1.889,0,0,0-.5,1.33v4.579H350.7Z" transform="translate(-131.174 -195.941)"/><path class="cls-1" d="M368.509,288.642h-5.391a2.661,2.661,0,0,0,.4,1.494,2.006,2.006,0,0,0,1.763.9,1.889,1.889,0,0,0,1.921-1.351h1.166a2.884,2.884,0,0,1-1.052,1.792,3.3,3.3,0,0,1-2.077.64,3.028,3.028,0,0,1-2.546-1.138,4.137,4.137,0,0,1-.783-2.631,4.047,4.047,0,0,1,1.024-2.944,3.113,3.113,0,0,1,2.32-.91,3.354,3.354,0,0,1,1.827.5,2.774,2.774,0,0,1,1.13,1.366,6.33,6.33,0,0,1,.3,2.247Zm-1.252-.953a2.144,2.144,0,0,0-.561-1.543,1.905,1.905,0,0,0-1.443-.59,1.945,1.945,0,0,0-1.458.576,2.392,2.392,0,0,0-.634,1.557Z" transform="translate(-131.174 -195.941)"/><path class="cls-1" d="M370.1,284.646h1.081v1.237a2.729,2.729,0,0,1,2.418-1.393,2.519,2.519,0,0,1,1.692.533,1.78,1.78,0,0,1,.627,1.429v5.5h-1.153v-5.034a1.363,1.363,0,0,0-.4-1.039,1.537,1.537,0,0,0-1.1-.384,1.767,1.767,0,0,0-1.451.669,2.74,2.74,0,0,0-.541,1.778v4.01H370.1Z" transform="translate(-131.174 -195.941)"/><path class="cls-1" d="M380.726,284.646v.938h-1.493v4.865a.589.589,0,0,0,.178.434.625.625,0,0,0,.462.177,4.052,4.052,0,0,0,.826-.128l.127,1.024a8.287,8.287,0,0,1-1.337.157q-1.408,0-1.408-1.152v-5.377h-1v-.938h1v-1.494l1.152-.526v2.02Z" transform="translate(-131.174 -195.941)"/><path class="cls-2" d="M142.044,271.683q.338-.744.71-1.521t.71-1.522a12.465,12.465,0,0,1,.778-1.555,12.668,12.668,0,0,0,.777-1.555.636.636,0,0,0,.169-.372.5.5,0,0,1,.305-.372q.337-.744.777-1.623t.778-1.758a4.284,4.284,0,0,1,.372-.71q.236-.371.507-.845,2.365-4.26,4.666-8.655t4.733-8.588q.743-1.149,1.42-2.333t1.42-2.333l.541-.743.2-.812a1.5,1.5,0,0,1,.879-.608c.36-.09.744-.2,1.149-.338a2.4,2.4,0,0,1,1.218.169,1.389,1.389,0,0,0,1.217-.1,2.03,2.03,0,0,1,.507.2c.157.091.281.158.372.2a1.072,1.072,0,0,0,.473.135c.135,0,.247.091.338.271a1.154,1.154,0,0,1,.2.71,5.038,5.038,0,0,0,.068.845,21.483,21.483,0,0,0,.405,2.333,14.246,14.246,0,0,1,.338,2.13,23.6,23.6,0,0,0,.338,3.144q.27,1.521.677,3.212.607,2.5,1.014,4.767a38.968,38.968,0,0,0,1.217,4.835q.744,2.773,1.386,5.477t1.454,5.342l.947,3.245a2.744,2.744,0,0,0,.507-.946,9.955,9.955,0,0,1,.372-1.014q1.351-3.448,2.941-6.8t3.415-6.661q1.284-2.5,2.164-4.124T186,250.011q.609-1.182,1.15-2.163t1.251-2.1q.71-1.114,1.724-2.67t2.57-3.922q2.365-3.583,4.834-7.1c.345-.49.7-.974,1.053-1.457L195,224.412a9.119,9.119,0,0,0-7.9-4.559H155.9a9.118,9.118,0,0,0-7.9,4.559L132.4,251.441a9.117,9.117,0,0,0,0,9.118l8.175,14.16Q141.3,273.212,142.044,271.683Z" transform="translate(-131.174 -195.941)"/><path class="cls-3" d="M210.609,251.441,200.2,233.4c-.329.453-.659.907-.979,1.36q-1.388,1.962-2.671,4.057a2.029,2.029,0,0,0,.3-.439,1.238,1.238,0,0,1,.372-.44,1.561,1.561,0,0,1-.271.406,2.269,2.269,0,0,0-.27.338q-1.962,2.976-2.908,4.4t-1.42,2.13q-.474.709-.71,1.115t-.743,1.386q-.507.981-1.522,2.908t-3.043,5.646q-1.555,2.976-2.907,6.052a57.049,57.049,0,0,1-3.111,6.052,17.931,17.931,0,0,0-1.251,2.637q-.575,1.486-1.115,2.874a14.161,14.161,0,0,1-1.184,2.4,2.1,2.1,0,0,1-1.386,1.116q-.745.1-1.69-.913a14.543,14.543,0,0,1-2.164-3.719,35.491,35.491,0,0,1-1.589-4.6q-.644-2.365-1.251-4.6a85.719,85.719,0,0,1-2.5-9.974,81.714,81.714,0,0,0-2.434-9.7q-3.043,4.125-5.613,8.385T153.2,261a3.519,3.519,0,0,1-.338.643q-.2.3-.406.642-1.825,3.518-3.651,6.965t-3.516,7.032q-.859,1.794-1.741,3.6l4.452,7.71a9.118,9.118,0,0,0,7.9,4.559h31.209a9.119,9.119,0,0,0,7.9-4.559l15.605-27.029A9.117,9.117,0,0,0,210.609,251.441Z" transform="translate(-131.174 -195.941)"/><path class="cls-4" d="M370.967,200.276l-1.536-1.535a.543.543,0,0,0-.768.767l1.536,1.536a.543.543,0,0,0,.768-.768Z" transform="translate(-131.174 -195.941)"/><path class="cls-4" d="M368.675,204.718h-2.209a.544.544,0,0,0,0,1.087h2.209a.544.544,0,1,0,0-1.087Z" transform="translate(-131.174 -195.941)"/><path class="cls-4" d="M383.9,204.718h-2.209a.544.544,0,1,0,0,1.087H383.9a.55.55,0,0,0,.543-.544A.542.542,0,0,0,383.9,204.718Z" transform="translate(-131.174 -195.941)"/><path class="cls-4" d="M381.705,198.741a.541.541,0,0,0-.768,0l-1.536,1.535a.543.543,0,1,0,.768.768l1.536-1.536A.542.542,0,0,0,381.705,198.741Z" transform="translate(-131.174 -195.941)"/><path class="cls-4" d="M375.184,196a.542.542,0,0,0-.543.543v2.209a.55.55,0,0,0,.543.544.542.542,0,0,0,.543-.544v-2.209A.549.549,0,0,0,375.184,196Z" transform="translate(-131.174 -195.941)"/><path class="cls-4" d="M378.22,201.434a4.89,4.89,0,0,0-4.217-.91,4.8,4.8,0,0,0-3.556,3.509,4.932,4.932,0,0,0,1.311,4.725,2.659,2.659,0,0,1,.709,1.854v.118a.535.535,0,0,0,.544.544h4.347a.534.534,0,0,0,.543-.544v-.118a2.7,2.7,0,0,1,.744-1.89,4.889,4.889,0,0,0,1.418-3.449A4.807,4.807,0,0,0,378.22,201.434Zm-3.036,2.2a1.589,1.589,0,0,0-1.571,1.169.549.549,0,0,1-.662.4.529.529,0,0,1-.389-.661,2.678,2.678,0,0,1,2.622-2,.55.55,0,0,1,.543.544A.542.542,0,0,1,375.184,203.631Z" transform="translate(-131.174 -195.941)"/><path class="cls-4" d="M373.011,212.361v.543a1.633,1.633,0,0,0,1.63,1.63h1.086a1.634,1.634,0,0,0,1.631-1.63v-.543Z" transform="translate(-131.174 -195.941)"/></svg>