<svg id="Layer_1" data-name="Layer 1" xmlns="http://www.w3.org/2000/svg" xmlns:xlink="http://www.w3.org/1999/xlink" viewBox="0 0 80.657 72.294"><defs><style>.cls-1{fill:url(#linear-gradient);}.cls-2{fill:url(#linear-gradient-2);}</style><linearGradient id="linear-gradient" x1="215.672" y1="247.286" x2="283.075" y2="247.286" gradientUnits="userSpaceOnUse"><stop offset="0" stop-color="#009fe3"/><stop offset="1" stop-color="#69b42d"/></linearGradient><linearGradient id="linear-gradient-2" x1="228.047" y1="262.775" x2="296.328" y2="262.775" xlink:href="#linear-gradient"/></defs><path class="cls-1" d="M226.542,271.683q.338-.744.71-1.521t.71-1.522a12.459,12.459,0,0,1,.777-1.555,12.533,12.533,0,0,0,.778-1.555.636.636,0,0,0,.169-.372.5.5,0,0,1,.3-.372q.337-.744.778-1.623t.777-1.758a4.361,4.361,0,0,1,.372-.71q.237-.371.507-.845,2.367-4.26,4.666-8.655t4.734-8.588q.742-1.149,1.42-2.333t1.42-2.333l.54-.743.2-.812a1.5,1.5,0,0,1,.879-.608q.541-.135,1.15-.338a2.4,2.4,0,0,1,1.217.169,1.389,1.389,0,0,0,1.217-.1,2,2,0,0,1,.507.2c.158.091.281.158.372.2a1.076,1.076,0,0,0,.473.135c.136,0,.248.091.339.271a1.154,1.154,0,0,1,.2.71,5.147,5.147,0,0,0,.067.845,21.735,21.735,0,0,0,.406,2.333,14.51,14.51,0,0,1,.338,2.13,23.27,23.27,0,0,0,.338,3.144q.27,1.521.676,3.212.609,2.5,1.014,4.767a38.981,38.981,0,0,0,1.218,4.835q.742,2.773,1.386,5.477t1.454,5.342l.946,3.245a2.744,2.744,0,0,0,.507-.946,10.457,10.457,0,0,1,.372-1.014q1.353-3.448,2.942-6.8t3.414-6.661q1.284-2.5,2.164-4.124t1.488-2.807q.609-1.182,1.149-2.163t1.252-2.1q.71-1.114,1.723-2.67t2.57-3.922q2.365-3.583,4.835-7.1c.344-.49.7-.974,1.052-1.457l-3.573-6.189a9.119,9.119,0,0,0-7.9-4.559H240.4a9.119,9.119,0,0,0-7.9,4.559l-15.6,27.029a9.117,9.117,0,0,0,0,9.118l8.175,14.16Q225.794,273.212,226.542,271.683Z" transform="translate(-215.672 -219.853)"/><path class="cls-2" d="M295.107,251.441,284.693,233.4c-.329.453-.659.907-.979,1.36q-1.387,1.962-2.672,4.057a1.994,1.994,0,0,0,.3-.439,1.25,1.25,0,0,1,.373-.44,1.586,1.586,0,0,1-.271.406,2.206,2.206,0,0,0-.27.338q-1.963,2.976-2.908,4.4t-1.42,2.13q-.474.709-.71,1.115t-.744,1.386q-.507.981-1.521,2.908t-3.043,5.646q-1.555,2.976-2.907,6.052a57.049,57.049,0,0,1-3.111,6.052,17.83,17.83,0,0,0-1.251,2.637q-.576,1.486-1.116,2.874a14.087,14.087,0,0,1-1.183,2.4,2.107,2.107,0,0,1-1.386,1.116q-.746.1-1.691-.913a14.6,14.6,0,0,1-2.164-3.719,35.491,35.491,0,0,1-1.589-4.6q-.642-2.365-1.251-4.6a85.715,85.715,0,0,1-2.5-9.974,81.715,81.715,0,0,0-2.435-9.7q-3.042,4.125-5.612,8.385T237.7,261a3.519,3.519,0,0,1-.338.643c-.135.2-.271.417-.406.642q-1.826,3.518-3.651,6.965t-3.517,7.032q-.859,1.794-1.74,3.6l4.451,7.71a9.119,9.119,0,0,0,7.9,4.559h31.21a9.119,9.119,0,0,0,7.9-4.559l15.605-27.029A9.117,9.117,0,0,0,295.107,251.441Z" transform="translate(-215.672 -219.853)"/></svg>